<svg width="25" height="24" viewBox="0 0 25 24" fill="none" xmlns="http://www.w3.org/2000/svg">
<g clip-path="url(#clip0_38064_1122)">
<path d="M7.03516 22.418C6.03906 22.418 5.29036 22.1641 4.78906 21.6562C4.28776 21.1549 4.03711 20.403 4.03711 19.4004V4.55664C4.03711 3.53451 4.28776 2.76953 4.78906 2.26172C5.29688 1.7474 6.05534 1.49023 7.06445 1.49023H17.4355C18.4447 1.49023 19.1999 1.7474 19.7012 2.26172C20.209 2.77604 20.4629 3.54102 20.4629 4.55664V15.7578C20.4629 16.2461 20.3717 16.627 20.1895 16.9004C20.0072 17.1738 19.8249 17.4017 19.6426 17.584C19.2389 17.9941 18.9915 18.4238 18.9004 18.873C18.8092 19.3158 18.8516 19.7194 19.0273 20.084C19.2096 20.4551 19.5059 20.722 19.916 20.8848C20.0723 20.9368 20.2025 21.0312 20.3066 21.168C20.4108 21.3112 20.4629 21.4674 20.4629 21.6367C20.4629 21.8516 20.3848 22.0339 20.2285 22.1836C20.0788 22.3398 19.8965 22.418 19.6816 22.418H7.03516ZM5.60938 16.7734C5.82422 16.6432 6.06185 16.5456 6.32227 16.4805C6.58919 16.4089 6.88216 16.373 7.20117 16.373H18.041C18.6074 16.373 18.8906 16.0964 18.8906 15.543V4.58594C18.8906 4.09766 18.7604 3.72331 18.5 3.46289C18.2461 3.19596 17.8652 3.0625 17.3574 3.0625H7.13281C6.63151 3.0625 6.25065 3.19596 5.99023 3.46289C5.73633 3.72331 5.60938 4.09766 5.60938 4.58594V16.7734ZM7.12305 20.8457H17.709C17.4486 20.4225 17.3021 19.9538 17.2695 19.4395C17.2435 18.9316 17.3444 18.4238 17.5723 17.916C17.4681 17.9355 17.3542 17.9453 17.2305 17.9453H7.21094C6.72266 17.9453 6.33203 18.0788 6.03906 18.3457C5.7526 18.6061 5.60938 18.9544 5.60938 19.3906C5.60938 19.8529 5.73633 20.2109 5.99023 20.4648C6.25065 20.7188 6.62826 20.8457 7.12305 20.8457ZM6.76172 17.2129V2.68164H8.04102V17.2129H6.76172Z" fill="#BB0013"/>
</g>
<defs>
<clipPath id="clip0_38064_1122">
<rect width="24" height="24" fill="white" transform="translate(0.25)"/>
</clipPath>
</defs>
</svg>
