<svg width="25" height="24" viewBox="0 0 25 24" fill="none" xmlns="http://www.w3.org/2000/svg">
<g clip-path="url(#clip0_38064_1485)">
<path d="M3.57031 3.3457C3.32943 3.3457 3.13086 3.26432 2.97461 3.10156C2.82487 2.9388 2.75 2.74349 2.75 2.51562C2.75 2.29427 2.82487 2.10547 2.97461 1.94922C3.13086 1.78646 3.32943 1.70508 3.57031 1.70508H11.1387C11.3665 1.70508 11.5618 1.78646 11.7246 1.94922C11.8874 2.10547 11.9688 2.29427 11.9688 2.51562C11.9688 2.74349 11.8874 2.9388 11.7246 3.10156C11.5618 3.26432 11.3665 3.3457 11.1387 3.3457H3.57031ZM7.36914 22.1641C6.24935 22.1641 5.34766 21.8255 4.66406 21.1484C3.98047 20.4714 3.63867 19.5762 3.63867 18.4629V2.52539H5.21094V18.4629C5.21094 19.1074 5.40625 19.625 5.79688 20.0156C6.19401 20.4128 6.7181 20.6113 7.36914 20.6113C8.00716 20.6113 8.52148 20.4128 8.91211 20.0156C9.30924 19.625 9.50781 19.1074 9.50781 18.4629V2.52539H11.0703V18.4629C11.0703 19.5762 10.7318 20.4714 10.0547 21.1484C9.3776 21.8255 8.48242 22.1641 7.36914 22.1641ZM9.95703 5.92383V18.4629C9.95703 19.2311 9.71615 19.8561 9.23438 20.3379C8.7526 20.8197 8.13086 21.0605 7.36914 21.0605C6.5944 21.0605 5.96615 20.8197 5.48438 20.3379C5.0026 19.8561 4.76172 19.2311 4.76172 18.4629V5.92383H9.95703ZM5.21094 9.09766H7.33984C7.5026 9.09766 7.63932 9.04232 7.75 8.93164C7.86068 8.82096 7.91602 8.68099 7.91602 8.51172C7.91602 8.36198 7.85742 8.23177 7.74023 8.12109C7.62305 8.01042 7.48633 7.95508 7.33008 7.95508H5.21094V9.09766ZM5.21094 12.2617H7.33984C7.5026 12.2617 7.63932 12.2096 7.75 12.1055C7.86068 11.9948 7.91602 11.8548 7.91602 11.6855C7.91602 11.5358 7.85742 11.4056 7.74023 11.2949C7.62956 11.1777 7.49609 11.1191 7.33984 11.1191H5.21094V12.2617ZM5.21094 15.4355H7.33008C7.50586 15.4355 7.64583 15.3802 7.75 15.2695C7.86068 15.1589 7.91276 15.0221 7.90625 14.8594C7.90625 14.7096 7.84766 14.5794 7.73047 14.4688C7.61979 14.3516 7.48633 14.293 7.33008 14.293H5.21094V15.4355ZM14.3613 3.3457C14.1139 3.3457 13.9121 3.26432 13.7559 3.10156C13.6061 2.9388 13.5312 2.74349 13.5312 2.51562C13.5312 2.29427 13.6061 2.10547 13.7559 1.94922C13.9121 1.78646 14.1139 1.70508 14.3613 1.70508H21.9297C22.151 1.70508 22.3431 1.78646 22.5059 1.94922C22.6686 2.10547 22.75 2.29427 22.75 2.51562C22.75 2.74349 22.6686 2.9388 22.5059 3.10156C22.3431 3.26432 22.151 3.3457 21.9297 3.3457H14.3613ZM18.1504 22.1641C17.0306 22.1641 16.1289 21.8255 15.4453 21.1484C14.7617 20.4714 14.4199 19.5762 14.4199 18.4629V2.52539H15.9922V18.4629C15.9922 19.1074 16.1908 19.625 16.5879 20.0156C16.985 20.4128 17.5059 20.6113 18.1504 20.6113C18.7949 20.6113 19.3125 20.4128 19.7031 20.0156C20.1003 19.625 20.2988 19.1074 20.2988 18.4629V2.52539H21.8613V18.4629C21.8613 19.5762 21.5195 20.4714 20.8359 21.1484C20.1589 21.8255 19.2637 22.1641 18.1504 22.1641ZM20.7383 17.418V18.4629C20.7383 19.2311 20.4974 19.8561 20.0156 20.3379C19.5404 20.8197 18.9186 21.0605 18.1504 21.0605C17.3822 21.0605 16.7572 20.8197 16.2754 20.3379C15.7936 19.8561 15.5527 19.2311 15.5527 18.4629V17.418H20.7383ZM15.582 9.09766V7.95508H18.1211C18.2773 7.95508 18.4108 8.01042 18.5215 8.12109C18.6387 8.23177 18.6973 8.36198 18.6973 8.51172C18.6973 8.68099 18.6419 8.82096 18.5312 8.93164C18.4271 9.04232 18.2936 9.09766 18.1309 9.09766H15.582ZM15.582 12.2617V11.1191H18.1309C18.2871 11.1191 18.4206 11.1777 18.5312 11.2949C18.6419 11.4056 18.6973 11.5358 18.6973 11.6855C18.6973 11.8548 18.6419 11.9948 18.5312 12.1055C18.4271 12.2096 18.2936 12.2617 18.1309 12.2617H15.582ZM15.582 15.4355V14.293H18.1211C18.2773 14.293 18.4108 14.3516 18.5215 14.4688C18.6322 14.5794 18.6875 14.7096 18.6875 14.8594C18.694 15.0221 18.6419 15.1589 18.5312 15.2695C18.4271 15.3802 18.2904 15.4355 18.1211 15.4355H15.582Z" fill="#BB0013"/>
</g>
<defs>
<clipPath id="clip0_38064_1485">
<rect width="24" height="24" fill="white" transform="translate(0.75)"/>
</clipPath>
</defs>
</svg>
