<svg width="25" height="24" viewBox="0 0 25 24" fill="none" xmlns="http://www.w3.org/2000/svg">
<g clip-path="url(#clip0_38064_1277)">
<path d="M11.7637 22.3887C11.3861 22.3887 11.0605 22.2812 10.7871 22.0664C10.5137 21.8581 10.3379 21.5716 10.2598 21.207L9.83008 19.3809L9.51758 19.2734L7.93555 20.25C7.61654 20.4453 7.28451 20.5202 6.93945 20.4746C6.5944 20.4355 6.28841 20.2826 6.02148 20.0156L4.66406 18.6582C4.39062 18.3848 4.23112 18.0788 4.18555 17.7402C4.14648 17.3952 4.22786 17.0664 4.42969 16.7539L5.41602 15.1719L5.30859 14.8789L3.48242 14.4492C3.12435 14.3711 2.83789 14.1953 2.62305 13.9219C2.4082 13.6419 2.30078 13.3164 2.30078 12.9453V11.0117C2.30078 10.6406 2.40495 10.3184 2.61328 10.0449C2.82812 9.77148 3.11784 9.59245 3.48242 9.50781L5.28906 9.06836L5.40625 8.75586L4.41992 7.17383C4.2181 6.86133 4.13672 6.53581 4.17578 6.19727C4.22135 5.85221 4.38086 5.54297 4.6543 5.26953L6.01172 3.90234C6.27865 3.64193 6.58138 3.48893 6.91992 3.44336C7.26497 3.39779 7.59701 3.47266 7.91602 3.66797L9.49805 4.64453L9.83008 4.51758L10.2598 2.69141C10.3379 2.33333 10.5137 2.04688 10.7871 1.83203C11.0605 1.61719 11.3861 1.50977 11.7637 1.50977H13.7363C14.1139 1.50977 14.4362 1.61719 14.7031 1.83203C14.9766 2.04688 15.1556 2.33333 15.2402 2.69141L15.6602 4.51758L15.9922 4.64453L17.584 3.66797C17.8965 3.47266 18.2253 3.39779 18.5703 3.44336C18.9154 3.48893 19.2181 3.64193 19.4785 3.90234L20.8457 5.26953C21.1191 5.54297 21.2754 5.85221 21.3145 6.19727C21.3535 6.53581 21.2754 6.86133 21.0801 7.17383L20.084 8.75586L20.2109 9.06836L22.0176 9.50781C22.3757 9.59245 22.6621 9.77148 22.877 10.0449C23.0918 10.3184 23.1992 10.6406 23.1992 11.0117V12.9453C23.1992 13.3164 23.0918 13.6419 22.877 13.9219C22.6621 14.1953 22.3757 14.3711 22.0176 14.4492L20.1914 14.8789L20.0742 15.1719L21.0703 16.7539C21.2656 17.0664 21.3405 17.3952 21.2949 17.7402C21.2559 18.0788 21.1029 18.3848 20.8359 18.6582L19.4688 20.0156C19.2018 20.2826 18.8958 20.4355 18.5508 20.4746C18.2057 20.5202 17.877 20.4453 17.5645 20.25L15.9727 19.2734L15.6602 19.3809L15.2402 21.207C15.1556 21.5716 14.9766 21.8581 14.7031 22.0664C14.4362 22.2812 14.1139 22.3887 13.7363 22.3887H11.7637ZM11.9199 20.8652H13.5801C13.7428 20.8652 13.834 20.7904 13.8535 20.6406L14.4492 18.2188C14.7487 18.1471 15.0319 18.056 15.2988 17.9453C15.5658 17.8281 15.8034 17.7044 16.0117 17.5742L18.1406 18.8828C18.2773 18.974 18.401 18.9577 18.5117 18.834L19.6543 17.6816C19.765 17.584 19.778 17.4635 19.6934 17.3203L18.3848 15.2109C18.502 15.0026 18.6159 14.765 18.7266 14.498C18.8438 14.2311 18.9414 13.9479 19.0195 13.6484L21.4512 13.0723C21.6009 13.0462 21.6758 12.9518 21.6758 12.7891V11.1582C21.6758 11.002 21.6009 10.9076 21.4512 10.875L19.0293 10.2891C18.9512 9.97005 18.8503 9.67383 18.7266 9.40039C18.6029 9.12695 18.4954 8.89909 18.4043 8.7168L19.7031 6.60742C19.7943 6.46419 19.7845 6.33724 19.6738 6.22656L18.5215 5.09375C18.4043 4.98958 18.2773 4.97331 18.1406 5.04492L16.0215 6.33398C15.8066 6.2168 15.5658 6.10286 15.2988 5.99219C15.0384 5.875 14.7552 5.77734 14.4492 5.69922L13.8535 3.25781C13.834 3.10807 13.7428 3.0332 13.5801 3.0332H11.9199C11.7572 3.0332 11.6628 3.10807 11.6367 3.25781L11.0605 5.67969C10.7676 5.75781 10.4779 5.85547 10.1914 5.97266C9.91146 6.08984 9.66732 6.20703 9.45898 6.32422L7.34961 5.04492C7.21289 4.97331 7.08919 4.98958 6.97852 5.09375L5.81641 6.22656C5.71224 6.33724 5.70247 6.46419 5.78711 6.60742L7.08594 8.7168C7.0013 8.89909 6.89388 9.12695 6.76367 9.40039C6.63997 9.67383 6.53906 9.97005 6.46094 10.2891L4.04883 10.875C3.89909 10.9076 3.82422 11.002 3.82422 11.1582V12.7891C3.82422 12.9518 3.89909 13.0462 4.04883 13.0723L6.4707 13.6484C6.54883 13.9479 6.64648 14.2311 6.76367 14.498C6.88086 14.765 6.99479 15.0026 7.10547 15.2109L5.79688 17.3203C5.71875 17.4635 5.73177 17.584 5.83594 17.6816L6.98828 18.834C7.09896 18.9577 7.2194 18.974 7.34961 18.8828L9.47852 17.5742C9.68685 17.7044 9.92448 17.8281 10.1914 17.9453C10.4648 18.056 10.7513 18.1471 11.0508 18.2188L11.6367 20.6406C11.6628 20.7904 11.7572 20.8652 11.9199 20.8652ZM12.75 15.6699C12.0599 15.6699 11.4316 15.5039 10.8652 15.1719C10.3053 14.8333 9.85938 14.3841 9.52734 13.8242C9.19531 13.2578 9.0293 12.6328 9.0293 11.9492C9.0293 11.2591 9.19531 10.6341 9.52734 10.0742C9.85938 9.51432 10.3053 9.06836 10.8652 8.73633C11.4316 8.39779 12.0599 8.22852 12.75 8.22852C13.4336 8.22852 14.0553 8.39779 14.6152 8.73633C15.1816 9.06836 15.6309 9.51432 15.9629 10.0742C16.3014 10.6341 16.4707 11.2591 16.4707 11.9492C16.4707 12.6328 16.3014 13.2578 15.9629 13.8242C15.6309 14.3841 15.1816 14.8333 14.6152 15.1719C14.0553 15.5039 13.4336 15.6699 12.75 15.6699ZM12.75 14.1562C13.1536 14.1562 13.5215 14.0586 13.8535 13.8633C14.1921 13.6615 14.459 13.3945 14.6543 13.0625C14.8561 12.724 14.957 12.3529 14.957 11.9492C14.957 11.5391 14.8561 11.168 14.6543 10.8359C14.459 10.5039 14.1921 10.2402 13.8535 10.0449C13.5215 9.8431 13.1536 9.74219 12.75 9.74219C12.3398 9.74219 11.9688 9.8431 11.6367 10.0449C11.3047 10.2402 11.0378 10.5039 10.8359 10.8359C10.6406 11.168 10.543 11.5391 10.543 11.9492C10.543 12.3529 10.6406 12.724 10.8359 13.0625C11.0378 13.3945 11.3047 13.6615 11.6367 13.8633C11.9688 14.0586 12.3398 14.1562 12.75 14.1562Z" fill="#BB0013"/>
</g>
<defs>
<clipPath id="clip0_38064_1277">
<rect width="24" height="24" fill="white" transform="translate(0.75)"/>
</clipPath>
</defs>
</svg>
