<svg width="25" height="24" viewBox="0 0 25 24" fill="none" xmlns="http://www.w3.org/2000/svg">
<g clip-path="url(#clip0_38064_841)">
<path d="M12.2402 14.6738C10.8145 14.6738 9.56445 14.4069 8.49023 13.873C7.42253 13.3392 6.59245 12.5938 6 11.6367C5.40755 10.6732 5.11133 9.54688 5.11133 8.25781C5.11133 7.58724 5.19596 6.86784 5.36523 6.09961C5.54102 5.32487 5.7819 4.5599 6.08789 3.80469C6.40039 3.04297 6.76172 2.34635 7.17188 1.71484C7.46484 1.26562 8.05404 0.920573 8.93945 0.679688C9.83138 0.438802 10.9349 0.318359 12.25 0.318359C13.5586 0.318359 14.6556 0.438802 15.541 0.679688C16.4329 0.920573 17.0221 1.26562 17.3086 1.71484C17.7188 2.34635 18.0801 3.04297 18.3926 3.80469C18.7051 4.5599 18.9492 5.32487 19.125 6.09961C19.3008 6.86784 19.3887 7.58724 19.3887 8.25781C19.3887 9.54688 19.0892 10.6732 18.4902 11.6367C17.8978 12.5938 17.0645 13.3392 15.9902 13.873C14.9225 14.4069 13.6725 14.6738 12.2402 14.6738ZM12.2402 13.1992C13.4056 13.1992 14.4115 13.0007 15.2578 12.6035C16.1042 12.1999 16.7585 11.6302 17.2207 10.8945C17.6829 10.1523 17.9141 9.27344 17.9141 8.25781C17.9141 7.76953 17.8587 7.24544 17.748 6.68555C17.6374 6.12565 17.4779 5.55924 17.2695 4.98633C17.0677 4.41341 16.8268 3.86328 16.5469 3.33594C16.1237 3.5638 15.5378 3.74284 14.7891 3.87305C14.0469 3.99674 13.2005 4.05859 12.25 4.05859C11.2865 4.05859 10.4336 3.99674 9.69141 3.87305C8.94922 3.74284 8.36328 3.5638 7.93359 3.33594C7.65365 3.86328 7.41276 4.41341 7.21094 4.98633C7.00911 5.55924 6.85286 6.12565 6.74219 6.68555C6.63802 7.24544 6.58594 7.76953 6.58594 8.25781C6.58594 9.27344 6.8138 10.1523 7.26953 10.8945C7.73177 11.6302 8.38607 12.1999 9.23242 12.6035C10.0788 13.0007 11.0814 13.1992 12.2402 13.1992ZM12.25 2.68164C12.8945 2.68164 13.5 2.6556 14.0664 2.60352C14.6328 2.55143 15.0918 2.48958 15.4434 2.41797C15.7949 2.33984 15.9707 2.26172 15.9707 2.18359C15.9707 2.11849 15.7917 2.05013 15.4336 1.97852C15.082 1.90039 14.623 1.83529 14.0566 1.7832C13.4902 1.73112 12.888 1.70508 12.25 1.70508C11.6055 1.70508 11 1.73112 10.4336 1.7832C9.86719 1.83529 9.4082 1.90039 9.05664 1.97852C8.70508 2.05013 8.5293 2.11849 8.5293 2.18359C8.5293 2.26172 8.70182 2.33984 9.04688 2.41797C9.39844 2.48958 9.85417 2.55143 10.4141 2.60352C10.9805 2.6556 11.5924 2.68164 12.25 2.68164ZM12.2402 21.2168C12.0449 21.2168 11.8757 21.1419 11.7324 20.9922C11.5892 20.849 11.5176 20.6797 11.5176 20.4844V13.9023H12.9824V20.4844C12.9824 20.6797 12.9076 20.849 12.7578 20.9922C12.6146 21.1419 12.4421 21.2168 12.2402 21.2168ZM12.2402 23.5801C10.4759 23.5736 9.09245 23.362 8.08984 22.9453C7.08724 22.5352 6.58594 21.9525 6.58594 21.1973C6.58594 20.4486 7.08724 19.8659 8.08984 19.4492C9.09245 19.0326 10.4759 18.8242 12.2402 18.8242C14.0111 18.8242 15.3978 19.0326 16.4004 19.4492C17.4095 19.8659 17.9141 20.4486 17.9141 21.1973C17.9141 21.946 17.4095 22.5286 16.4004 22.9453C15.3978 23.362 14.0111 23.5736 12.2402 23.5801ZM12.2402 22.1445C13.0736 22.1445 13.7962 22.1022 14.4082 22.0176C15.0202 21.9395 15.4954 21.8288 15.834 21.6855C16.1725 21.5423 16.3418 21.3796 16.3418 21.1973C16.3418 21.0215 16.1725 20.862 15.834 20.7188C15.4954 20.5755 15.0202 20.4616 14.4082 20.377C13.7962 20.2923 13.0736 20.25 12.2402 20.25C11.4134 20.25 10.694 20.2923 10.082 20.377C9.47005 20.4616 8.99479 20.5755 8.65625 20.7188C8.32422 20.862 8.1582 21.0215 8.1582 21.1973C8.1582 21.3796 8.32422 21.5423 8.65625 21.6855C8.99479 21.8288 9.47005 21.9395 10.082 22.0176C10.694 22.1022 11.4134 22.1445 12.2402 22.1445Z" fill="#BB0013"/>
</g>
<defs>
<clipPath id="clip0_38064_841">
<rect width="24" height="24" fill="white" transform="translate(0.25)"/>
</clipPath>
</defs>
</svg>
